<svg width="10" height="10" viewBox="0 0 10 10" fill="none" xmlns="http://www.w3.org/2000/svg">
<rect width="10" height="10" fill="#EDEDED"/>
<rect x="-327.5" y="-20.5" width="358" height="372" fill="white" fill-opacity="0.6" stroke="#CCCCCC"/>
<mask id="mask0_174_1227" style="mask-type:alpha" maskUnits="userSpaceOnUse" x="0" y="0" width="10" height="10">
<path fill-rule="evenodd" clip-rule="evenodd" d="M8.08344 9.37626L4.85095 6.14377L1.61846 9.37626C1.26141 9.73331 0.68252 9.73331 0.325469 9.37625C-0.0315818 9.0192 -0.0315825 8.44031 0.325469 8.08326L3.55796 4.85077L0.325468 1.61828C-0.0315826 1.26123 -0.0315825 0.682339 0.325468 0.325289C0.682519 -0.0317621 1.26141 -0.0317623 1.61846 0.325288L4.85095 3.55778L8.08344 0.325288C8.44049 -0.0317626 9.01938 -0.0317625 9.37644 0.325288C9.73349 0.682339 9.73349 1.26123 9.37644 1.61828L6.14395 4.85077L9.37644 8.08326C9.73349 8.44031 9.73349 9.0192 9.37643 9.37626C9.01938 9.73331 8.44049 9.73331 8.08344 9.37626Z" fill="black"/>
</mask>
<g mask="url(#mask0_174_1227)">
<path d="M-5 -5H15V15H-5V-5Z" fill="black"/>
</g>
</svg>
